<svg width="190" height="57" viewBox="0 0 190 57" fill="none" xmlns="http://www.w3.org/2000/svg">
<path d="M14.448 45C12.528 45 10.912 44.664 9.6 43.992C8.288 43.32 7.312 42.328 6.672 41.016C6.032 39.672 5.712 38.008 5.712 36.024V25.128H1.92C1.6 25.128 1.328 25.016 1.104 24.792C0.88 24.568 0.768 24.296 0.768 23.976V21.192C0.768 20.872 0.88 20.6 1.104 20.376C1.328 20.152 1.6 20.04 1.92 20.04H5.712V12.072C5.712 11.752 5.808 11.48 6 11.256C6.224 11.032 6.512 10.92 6.864 10.92H10.752C11.072 10.92 11.344 11.032 11.568 11.256C11.792 11.48 11.904 11.752 11.904 12.072V20.04H17.904C18.224 20.04 18.496 20.152 18.72 20.376C18.944 20.6 19.056 20.872 19.056 21.192V23.976C19.056 24.296 18.944 24.568 18.72 24.792C18.496 25.016 18.224 25.128 17.904 25.128H11.904V35.544C11.904 36.856 12.128 37.88 12.576 38.616C13.056 39.352 13.872 39.72 15.024 39.72H18.336C18.656 39.72 18.928 39.832 19.152 40.056C19.376 40.28 19.488 40.552 19.488 40.872V43.848C19.488 44.168 19.376 44.44 19.152 44.664C18.928 44.888 18.656 45 18.336 45H14.448ZM30.9941 45.48C29.3301 45.48 27.8261 45.16 26.4821 44.52C25.1381 43.848 24.0661 42.968 23.2661 41.88C22.4981 40.76 22.1141 39.512 22.1141 38.136C22.1141 35.896 23.0101 34.12 24.8021 32.808C26.6261 31.464 29.0261 30.568 32.0021 30.12L38.5781 29.16V28.152C38.5781 26.808 38.2421 25.768 37.5701 25.032C36.8981 24.296 35.7461 23.928 34.1141 23.928C32.9621 23.928 32.0181 24.168 31.2821 24.648C30.5781 25.096 30.0501 25.704 29.6981 26.472C29.4421 26.888 29.0741 27.096 28.5941 27.096H24.8021C24.4501 27.096 24.1781 27 23.9861 26.808C23.8261 26.616 23.7461 26.36 23.7461 26.04C23.7781 25.528 23.9861 24.904 24.3701 24.168C24.7541 23.432 25.3621 22.728 26.1941 22.056C27.0261 21.352 28.0981 20.76 29.4101 20.28C30.7221 19.8 32.3061 19.56 34.1621 19.56C36.1781 19.56 37.8741 19.816 39.2501 20.328C40.6581 20.808 41.7781 21.464 42.6101 22.296C43.4421 23.128 44.0501 24.104 44.4341 25.224C44.8181 26.344 45.0101 27.528 45.0101 28.776V43.848C45.0101 44.168 44.8981 44.44 44.6741 44.664C44.4501 44.888 44.1781 45 43.8581 45H39.9701C39.6181 45 39.3301 44.888 39.1061 44.664C38.9141 44.44 38.8181 44.168 38.8181 43.848V41.976C38.4021 42.584 37.8421 43.16 37.1381 43.704C36.4341 44.216 35.5701 44.648 34.5461 45C33.5541 45.32 32.3701 45.48 30.9941 45.48ZM32.6261 40.92C33.7461 40.92 34.7541 40.68 35.6501 40.2C36.5781 39.72 37.2981 38.984 37.8101 37.992C38.3541 36.968 38.6261 35.688 38.6261 34.152V33.144L33.8261 33.912C31.9381 34.2 30.5301 34.664 29.6021 35.304C28.6741 35.944 28.2101 36.728 28.2101 37.656C28.2101 38.36 28.4181 38.968 28.8341 39.48C29.2821 39.96 29.8421 40.328 30.5141 40.584C31.1861 40.808 31.8901 40.92 32.6261 40.92ZM52.368 45C52.048 45 51.776 44.888 51.552 44.664C51.328 44.44 51.216 44.168 51.216 43.848V12.072C51.216 11.752 51.328 11.48 51.552 11.256C51.776 11.032 52.048 10.92 52.368 10.92H56.352C56.672 10.92 56.944 11.032 57.168 11.256C57.392 11.48 57.504 11.752 57.504 12.072V43.848C57.504 44.168 57.392 44.44 57.168 44.664C56.944 44.888 56.672 45 56.352 45H52.368ZM81.6791 54.12C81.3591 54.12 81.0871 54.008 80.8631 53.784C80.6391 53.56 80.5271 53.288 80.5271 52.968V42.072C79.7591 43.096 78.7671 43.928 77.5511 44.568C76.3351 45.176 74.8631 45.48 73.1351 45.48C71.5031 45.48 70.0471 45.192 68.7671 44.616C67.5191 44.04 66.4631 43.256 65.5991 42.264C64.7671 41.24 64.1271 40.056 63.6791 38.712C63.2311 37.336 62.9751 35.848 62.9111 34.248C62.8791 33.672 62.8631 33.096 62.8631 32.52C62.8631 31.944 62.8791 31.384 62.9111 30.84C63.0071 29.176 63.2631 27.656 63.6791 26.28C64.1271 24.904 64.7671 23.72 65.5991 22.728C66.4631 21.704 67.5191 20.92 68.7671 20.376C70.0471 19.832 71.5031 19.56 73.1351 19.56C74.9911 19.56 76.5431 19.896 77.7911 20.568C79.0711 21.24 80.0791 22.088 80.8151 23.112V21.192C80.8151 20.872 80.9271 20.6 81.1511 20.376C81.3751 20.152 81.6471 20.04 81.9671 20.04H85.8071C86.1271 20.04 86.3991 20.152 86.6231 20.376C86.8471 20.6 86.9591 20.872 86.9591 21.192V52.968C86.9591 53.288 86.8471 53.56 86.6231 53.784C86.3991 54.008 86.1271 54.12 85.8071 54.12H81.6791ZM74.9591 40.344C76.2391 40.344 77.2791 40.056 78.0791 39.48C78.8791 38.904 79.4711 38.184 79.8551 37.32C80.2711 36.424 80.4951 35.496 80.5271 34.536C80.5911 33.928 80.6231 33.304 80.6231 32.664C80.6231 32.024 80.5911 31.416 80.5271 30.84C80.4951 29.848 80.2871 28.888 79.9031 27.96C79.5191 27 78.9271 26.216 78.1271 25.608C77.3271 25 76.2711 24.696 74.9591 24.696C73.6151 24.696 72.5431 25 71.7431 25.608C70.9431 26.184 70.3671 26.952 70.0151 27.912C69.6951 28.872 69.5031 29.928 69.4391 31.08C69.3751 32.04 69.3751 33 69.4391 33.96C69.5031 35.112 69.6951 36.168 70.0151 37.128C70.3671 38.088 70.9431 38.872 71.7431 39.48C72.5431 40.056 73.6151 40.344 74.9591 40.344Z" fill="#155DFC"/>
<path d="M127 45C126.488 45 126.104 44.888 125.848 44.664C125.624 44.408 125.432 44.12 125.272 43.8L116.296 21.528C116.232 21.368 116.2 21.224 116.2 21.096C116.2 20.808 116.296 20.568 116.488 20.376C116.712 20.152 116.968 20.04 117.256 20.04H121.144C121.528 20.04 121.816 20.152 122.008 20.376C122.2 20.568 122.328 20.76 122.392 20.952L128.776 37.8L135.16 20.952C135.224 20.76 135.352 20.568 135.544 20.376C135.736 20.152 136.024 20.04 136.408 20.04H140.344C140.6 20.04 140.824 20.152 141.016 20.376C141.24 20.568 141.352 20.808 141.352 21.096C141.352 21.224 141.336 21.368 141.304 21.528L132.28 43.8C132.152 44.12 131.96 44.408 131.704 44.664C131.448 44.888 131.064 45 130.552 45H127ZM155.592 45.48C152.04 45.48 149.224 44.456 147.144 42.408C145.064 40.36 143.944 37.448 143.784 33.672C143.752 33.352 143.736 32.952 143.736 32.472C143.736 31.96 143.752 31.56 143.784 31.272C143.912 28.872 144.456 26.792 145.416 25.032C146.408 23.272 147.768 21.928 149.496 21C151.224 20.04 153.256 19.56 155.592 19.56C158.184 19.56 160.36 20.104 162.12 21.192C163.88 22.248 165.208 23.736 166.104 25.656C167 27.544 167.448 29.736 167.448 32.232V33.24C167.448 33.56 167.336 33.832 167.112 34.056C166.888 34.28 166.6 34.392 166.248 34.392H150.312C150.312 34.392 150.312 34.44 150.312 34.536C150.312 34.632 150.312 34.712 150.312 34.776C150.344 35.896 150.552 36.936 150.936 37.896C151.352 38.824 151.944 39.576 152.712 40.152C153.512 40.728 154.456 41.016 155.544 41.016C156.44 41.016 157.192 40.888 157.8 40.632C158.408 40.344 158.904 40.024 159.288 39.672C159.672 39.32 159.944 39.032 160.104 38.808C160.392 38.424 160.616 38.2 160.776 38.136C160.968 38.04 161.24 37.992 161.592 37.992H165.72C166.04 37.992 166.296 38.088 166.488 38.28C166.712 38.472 166.808 38.712 166.776 39C166.744 39.512 166.472 40.136 165.96 40.872C165.48 41.608 164.776 42.328 163.848 43.032C162.92 43.736 161.752 44.328 160.344 44.808C158.968 45.256 157.384 45.48 155.592 45.48ZM150.312 30.36H160.92V30.216C160.92 28.968 160.712 27.88 160.296 26.952C159.88 26.024 159.272 25.288 158.472 24.744C157.672 24.2 156.712 23.928 155.592 23.928C154.472 23.928 153.512 24.2 152.712 24.744C151.912 25.288 151.304 26.024 150.888 26.952C150.504 27.88 150.312 28.968 150.312 30.216V30.36ZM173.695 45C173.375 45 173.103 44.888 172.879 44.664C172.655 44.44 172.543 44.168 172.543 43.848V21.24C172.543 20.888 172.655 20.6 172.879 20.376C173.103 20.152 173.375 20.04 173.695 20.04H177.583C177.903 20.04 178.175 20.152 178.399 20.376C178.655 20.6 178.783 20.888 178.783 21.24V23.208C179.519 22.184 180.463 21.4 181.615 20.856C182.799 20.312 184.159 20.04 185.695 20.04H187.663C188.015 20.04 188.287 20.152 188.479 20.376C188.703 20.6 188.815 20.872 188.815 21.192V24.648C188.815 24.968 188.703 25.24 188.479 25.464C188.287 25.688 188.015 25.8 187.663 25.8H183.919C182.383 25.8 181.183 26.232 180.319 27.096C179.487 27.96 179.071 29.144 179.071 30.648V43.848C179.071 44.168 178.959 44.44 178.735 44.664C178.511 44.888 178.223 45 177.871 45H173.695Z" fill="#155DFC"/>
<path d="M91 33C91 29.8174 92.2643 26.7652 94.5147 24.5147C96.7652 22.2643 99.8174 21 103 21C106.183 21 109.235 22.2643 111.485 24.5147C113.736 26.7652 115 29.8174 115 33C115 36.1826 113.736 39.2348 111.485 41.4853C109.235 43.7357 106.183 45 103 45C99.8174 45 96.7652 43.7357 94.5147 41.4853C92.2643 39.2348 91 36.1826 91 33ZM103 28.5C104.193 28.5 105.338 28.9741 106.182 29.818C107.026 30.6619 107.5 31.8065 107.5 33C107.5 34.1935 107.026 35.3381 106.182 36.182C105.338 37.0259 104.193 37.5 103 37.5C101.807 37.5 100.662 37.0259 99.818 36.182C98.9741 35.3381 98.5 34.1935 98.5 33C98.5 31.8065 98.9741 30.6619 99.818 29.818C100.662 28.9741 101.807 28.5 103 28.5ZM103 39C104.591 39 106.117 38.3679 107.243 37.2426C108.368 36.1174 109 34.5913 109 33C109 31.4087 108.368 29.8826 107.243 28.7574C106.117 27.6321 104.591 27 103 27C101.409 27 99.8826 27.6321 98.7574 28.7574C97.6321 29.8826 97 31.4087 97 33C97 34.5913 97.6321 36.1174 98.7574 37.2426C99.8826 38.3679 101.409 39 103 39ZM103 34.5C103.398 34.5 103.779 34.342 104.061 34.0607C104.342 33.7794 104.5 33.3978 104.5 33C104.5 32.6022 104.342 32.2206 104.061 31.9393C103.779 31.658 103.398 31.5 103 31.5C102.602 31.5 102.221 31.658 101.939 31.9393C101.658 32.2206 101.5 32.6022 101.5 33C101.5 33.3978 101.658 33.7794 101.939 34.0607C102.221 34.342 102.602 34.5 103 34.5Z" fill="#0F47C4" fill-opacity="0.454902"/>
</svg>
